# xmcd
#
# Track frame offsets:
# 150
# 7748
# 15823
# 20310
# 26528
# 35443
# 44312
# 52037
# 63489
# 74357
# 84721
# 92087
# 100303
# 111768
# 119268
# 135387
# 139616
# 146179
# 168680
# 178066
# 197802
# 206623
# 218749
# 227408
# 245568
# 252422
# 261367
# 263771
# 271802
# 278449
#
# Disc length: 3914 seconds
#
#
# Revision: 0
# Processed by: cddbd v1.5.2PL0 Copyright (c) Steve Scherf et al.
# Submitted via: Nero 7, 2, 3, 2 
#
DISCID=a70f481e
DTITLE=School - My music disc
DYEAR=2006
DGENRE=Country
TTITLE0=My music disc
TTITLE1=My music disc
TTITLE2=My music disc
TTITLE3=My music disc
TTITLE4=My music disc
TTITLE5=My music disc
TTITLE6=My music disc
TTITLE7=My music disc
TTITLE8=My music disc
TTITLE9=My music disc
TTITLE10=My music disc
TTITLE11=My music disc
TTITLE12=My music disc
TTITLE13=My music disc
TTITLE14=My music disc
TTITLE15=My music disc
TTITLE16=My music disc
TTITLE17=My music disc
TTITLE18=My music disc
TTITLE19=My music disc
TTITLE20=My music disc
TTITLE21=My music disc
TTITLE22=My music disc
TTITLE23=My music disc
TTITLE24=My music disc
TTITLE25=My music disc
TTITLE26=My music disc
TTITLE27=My music disc
TTITLE28=My music disc
TTITLE29=My music disc
EXTD=
EXTT0=
EXTT1=
EXTT2=
EXTT3=
EXTT4=
EXTT5=
EXTT6=
EXTT7=
EXTT8=
EXTT9=
EXTT10=
EXTT11=
EXTT12=
EXTT13=
EXTT14=
EXTT15=
EXTT16=
EXTT17=
EXTT18=
EXTT19=
EXTT20=
EXTT21=
EXTT22=
EXTT23=
EXTT24=
EXTT25=
EXTT26=
EXTT27=
EXTT28=
EXTT29=
PLAYORDER=
